<svg xmlns="http://www.w3.org/2000/svg" width="218.667" height="154.667" viewBox="0 0 218.667 154.667"><path fill="#0B2600" d="M111.76 152.667c-3.319 0-7.601-1.816-17.142-10.246-15.065 5.055-32.496 8.459-51.881 10.129l-.121.01a41.728 41.728 0 0 1-2.672.107c-3.961 0-9.022-2.455-21.999-14.67-14.612-13.74-15.741-17.074-15.741-20.281 0-1.072.387-6.461 8-7.264 16.52-1.99 27.583-3.689 32.794-5.039 8.594-2.273 13.741-5.447 13.741-8.482 0-.027-.246-2.852-9.094-8.359-20.998-12.8-22.312-13.847-23.017-14.41C15.1 66.56 10.27 57.803 10.27 48.132c0-14.018 11.274-25.396 33.511-33.82C60.353 7.958 80.918 3.773 104.88 1.882l.195-.013c1.496-.069 2.5-.101 3.26-.101 3.694 0 6.929 1.689 9.103 4.756l.084.123c.932 1.384 2.342 3.219 4.213 5.479 15.426-5.138 33.889-8.58 54.959-10.244l.195-.013c1.496-.069 2.502-.101 3.26-.101 3.695 0 6.928 1.689 9.102 4.756l.084.121c2.84 4.221 9.773 12.207 20.611 23.733 1.424 1.504 2.154 3.205 2.154 5.04 0 2.814-1.928 7.578-9.156 7.578-1.117 0-2.781-.097-5.236-.303-2.066-.17-3.611-.256-4.582-.256-7.758 0-14.57.932-20.246 2.77-5.492 1.701-7.246 3.514-7.246 4.129.014 0 .74 2.897 9.91 8.895 18.756 12.506 22.895 15.282 23.508 15.717l.334.254c9.717 7.97 14.645 16.367 14.645 24.958 0 15.08-11.281 27.783-33.529 37.76-18.049 8.154-40.24 13.416-65.947 15.629l-.121.01a41.161 41.161 0 0 1-2.674.108z"/><path fill="#74C182" d="M137.363 96.514c0 12.558-9.996 23.321-29.985 32.285-17.536 7.923-38.87 12.961-64.006 15.126-.937.062-1.695.094-2.279.094-2.69 0-8.651-4.346-17.885-13.038-9.236-8.687-13.853-13.99-13.853-15.912 0-.681.876-1.112 2.628-1.297 16.95-2.042 28.173-3.774 33.669-5.198 12.157-3.216 18.236-7.979 18.236-14.29 0-4.02-3.975-8.505-11.924-13.454-13.794-8.41-21.279-13.078-22.445-14.008-8.065-6.435-12.099-13.55-12.099-21.339 0-11.322 9.878-20.724 29.636-28.209C63.188 11.09 83.001 7.07 106.5 5.215c1.285-.06 2.28-.094 2.982-.094 1.752 0 3.156.742 4.208 2.226 3.037 4.518 10.11 12.679 21.217 24.494.352.371.526.681.526.93 0 1.052-1.053 1.578-3.155 1.578-.938 0-2.516-.095-4.735-.281-2.222-.183-3.919-.277-5.085-.277-8.416 0-15.782 1.018-22.096 3.062-7.599 2.354-11.396 5.63-11.396 9.838 0 3.771 4.208 8.41 12.624 13.915 14.847 9.898 22.621 15.092 23.323 15.59 8.298 6.804 12.45 13.575 12.45 20.318z"/><path fill="#34CC02" d="M196.727 76.194c-.702-.498-8.477-5.691-23.321-15.59-8.418-5.504-12.626-10.144-12.626-13.915 0-4.208 3.796-7.484 11.398-9.838 6.313-2.044 13.677-3.062 22.095-3.062 1.167 0 2.861.095 5.084.277 2.22.187 3.798.281 4.734.281 2.104 0 3.156-.526 3.156-1.578 0-.249-.175-.559-.526-.93-11.108-11.815-18.18-19.977-21.219-24.494-1.052-1.483-2.452-2.226-4.206-2.226-.702 0-1.697.034-2.982.094-23.496 1.855-43.312 5.875-59.443 12.06-19.758 7.487-29.635 16.888-29.635 28.21 0 7.789 4.032 14.904 12.099 21.339.688.551 3.626 2.43 8.738 5.598 2.725 1.599 5.283 2.845 7.691 3.931 12.133 7.12 42.294 30.225-21.678 56.03l.709.238c-.183-.061 0 0 0 0 8.204 7.563 13.602 11.399 16.112 11.399.583 0 1.343-.032 2.278-.094 25.134-2.165 46.47-7.203 64.006-15.126 19.991-8.964 29.985-19.728 29.985-32.285.001-6.742-4.15-13.513-12.449-20.319z"/><path fill="#466D4A" d="M100.411 66.025C92.988 59.8 89.236 52.957 89.236 45.483c0-11.322 9.877-20.724 29.635-28.209.672-.257 1.389-.488 2.073-.739l.016-.039-3.64-4.406s-17.651 1.913-28.084 19.193c-13.348 22.11 11.165 34.767 11.165 34.767l.01-.025z"/><path d="M133.035 118.306c15.377-22.98-8.701-37.737-8.701-37.737v.002c13 9.864 26.316 29.854-28.08 51.803l-.081.012.66.234a161.423 161.423 0 0 0 5.469 4.788c2.468-.239 19.604-2.47 30.733-19.102zm-36.24 14.313c-.182-.06 0 0 0 0z" fill="#046612"/></svg>